<mxfile host="app.diagrams.net" modified="2020-05-09T08:58:20.096Z" agent="5.0 (Windows NT 10.0; WOW64) AppleWebKit/537.36 (KHTML, like Gecko) Chrome/81.0.4044.122 Safari/537.36" etag="qNlCC4QTefclQwSXAilx" version="13.0.9" type="github">
  <diagram id="a6d8qoQg7wmettdPWS81" name="第 1 页">
    <mxGraphModel dx="1242" dy="166" grid="1" gridSize="10" guides="1" tooltips="1" connect="1" arrows="1" fold="1" page="1" pageScale="1" pageWidth="827" pageHeight="1169" math="0" shadow="0">
      <root>
        <mxCell id="0" />
        <mxCell id="1" parent="0" />
        <mxCell id="FVSSslxMcm7K-c5CqzQ3-6" style="edgeStyle=orthogonalEdgeStyle;rounded=0;orthogonalLoop=1;jettySize=auto;html=1;exitX=0.5;exitY=1;exitDx=0;exitDy=0;entryX=0.5;entryY=0;entryDx=0;entryDy=0;" edge="1" parent="1" source="FVSSslxMcm7K-c5CqzQ3-2" target="FVSSslxMcm7K-c5CqzQ3-4">
          <mxGeometry relative="1" as="geometry" />
        </mxCell>
        <mxCell id="FVSSslxMcm7K-c5CqzQ3-8" style="edgeStyle=orthogonalEdgeStyle;rounded=0;orthogonalLoop=1;jettySize=auto;html=1;exitX=0.5;exitY=1;exitDx=0;exitDy=0;entryX=0.5;entryY=0;entryDx=0;entryDy=0;" edge="1" parent="1" source="FVSSslxMcm7K-c5CqzQ3-2" target="FVSSslxMcm7K-c5CqzQ3-3">
          <mxGeometry relative="1" as="geometry" />
        </mxCell>
        <mxCell id="FVSSslxMcm7K-c5CqzQ3-9" style="edgeStyle=orthogonalEdgeStyle;rounded=0;orthogonalLoop=1;jettySize=auto;html=1;exitX=0.5;exitY=1;exitDx=0;exitDy=0;entryX=0.5;entryY=0;entryDx=0;entryDy=0;" edge="1" parent="1" source="FVSSslxMcm7K-c5CqzQ3-2" target="FVSSslxMcm7K-c5CqzQ3-5">
          <mxGeometry relative="1" as="geometry" />
        </mxCell>
        <mxCell id="FVSSslxMcm7K-c5CqzQ3-2" value="plan" style="rounded=1;whiteSpace=wrap;html=1;" vertex="1" parent="1">
          <mxGeometry x="250" y="60" width="120" height="60" as="geometry" />
        </mxCell>
        <mxCell id="FVSSslxMcm7K-c5CqzQ3-13" style="edgeStyle=orthogonalEdgeStyle;rounded=0;orthogonalLoop=1;jettySize=auto;html=1;exitX=0.5;exitY=1;exitDx=0;exitDy=0;entryX=0.5;entryY=0;entryDx=0;entryDy=0;" edge="1" parent="1" source="FVSSslxMcm7K-c5CqzQ3-3" target="FVSSslxMcm7K-c5CqzQ3-10">
          <mxGeometry relative="1" as="geometry" />
        </mxCell>
        <mxCell id="FVSSslxMcm7K-c5CqzQ3-3" value="task" style="rounded=1;whiteSpace=wrap;html=1;" vertex="1" parent="1">
          <mxGeometry x="100" y="220" width="120" height="60" as="geometry" />
        </mxCell>
        <mxCell id="FVSSslxMcm7K-c5CqzQ3-14" style="edgeStyle=orthogonalEdgeStyle;rounded=0;orthogonalLoop=1;jettySize=auto;html=1;exitX=0.5;exitY=1;exitDx=0;exitDy=0;entryX=0.5;entryY=0;entryDx=0;entryDy=0;" edge="1" parent="1" source="FVSSslxMcm7K-c5CqzQ3-4" target="FVSSslxMcm7K-c5CqzQ3-11">
          <mxGeometry relative="1" as="geometry" />
        </mxCell>
        <mxCell id="FVSSslxMcm7K-c5CqzQ3-4" value="task" style="rounded=1;whiteSpace=wrap;html=1;" vertex="1" parent="1">
          <mxGeometry x="250" y="220" width="120" height="60" as="geometry" />
        </mxCell>
        <mxCell id="FVSSslxMcm7K-c5CqzQ3-15" style="edgeStyle=orthogonalEdgeStyle;rounded=0;orthogonalLoop=1;jettySize=auto;html=1;exitX=0.5;exitY=1;exitDx=0;exitDy=0;entryX=0.5;entryY=0;entryDx=0;entryDy=0;" edge="1" parent="1" source="FVSSslxMcm7K-c5CqzQ3-5" target="FVSSslxMcm7K-c5CqzQ3-12">
          <mxGeometry relative="1" as="geometry" />
        </mxCell>
        <mxCell id="FVSSslxMcm7K-c5CqzQ3-5" value="task" style="rounded=1;whiteSpace=wrap;html=1;" vertex="1" parent="1">
          <mxGeometry x="420" y="220" width="120" height="60" as="geometry" />
        </mxCell>
        <mxCell id="FVSSslxMcm7K-c5CqzQ3-17" style="edgeStyle=orthogonalEdgeStyle;rounded=0;orthogonalLoop=1;jettySize=auto;html=1;exitX=0.5;exitY=1;exitDx=0;exitDy=0;entryX=0.5;entryY=0;entryDx=0;entryDy=0;" edge="1" parent="1" source="FVSSslxMcm7K-c5CqzQ3-10" target="FVSSslxMcm7K-c5CqzQ3-16">
          <mxGeometry relative="1" as="geometry" />
        </mxCell>
        <mxCell id="FVSSslxMcm7K-c5CqzQ3-10" value="回放范围" style="rounded=1;whiteSpace=wrap;html=1;" vertex="1" parent="1">
          <mxGeometry x="100" y="350" width="120" height="60" as="geometry" />
        </mxCell>
        <mxCell id="FVSSslxMcm7K-c5CqzQ3-18" style="edgeStyle=orthogonalEdgeStyle;rounded=0;orthogonalLoop=1;jettySize=auto;html=1;exitX=0.5;exitY=1;exitDx=0;exitDy=0;entryX=0.5;entryY=0;entryDx=0;entryDy=0;" edge="1" parent="1" source="FVSSslxMcm7K-c5CqzQ3-11" target="FVSSslxMcm7K-c5CqzQ3-16">
          <mxGeometry relative="1" as="geometry" />
        </mxCell>
        <mxCell id="FVSSslxMcm7K-c5CqzQ3-11" value="&#xa;&#xa;&lt;!--StartFragment--&gt;&lt;span style=&quot;color: rgb(0, 0, 0); font-family: Helvetica; font-size: 12px; font-style: normal; font-variant-ligatures: normal; font-variant-caps: normal; font-weight: 400; letter-spacing: normal; orphans: 2; text-align: center; text-indent: 0px; text-transform: none; widows: 2; word-spacing: 0px; -webkit-text-stroke-width: 0px; background-color: rgb(248, 249, 250); text-decoration-style: initial; text-decoration-color: initial; float: none; display: inline !important;&quot;&gt;回放范围&lt;/span&gt;&lt;!--EndFragment--&gt;&#xa;&#xa;" style="rounded=1;whiteSpace=wrap;html=1;" vertex="1" parent="1">
          <mxGeometry x="250" y="350" width="120" height="60" as="geometry" />
        </mxCell>
        <mxCell id="FVSSslxMcm7K-c5CqzQ3-19" style="edgeStyle=orthogonalEdgeStyle;rounded=0;orthogonalLoop=1;jettySize=auto;html=1;exitX=0.5;exitY=1;exitDx=0;exitDy=0;" edge="1" parent="1" source="FVSSslxMcm7K-c5CqzQ3-12">
          <mxGeometry relative="1" as="geometry">
            <mxPoint x="330" y="490" as="targetPoint" />
          </mxGeometry>
        </mxCell>
        <mxCell id="FVSSslxMcm7K-c5CqzQ3-12" value="&#xa;&#xa;&lt;!--StartFragment--&gt;&lt;span style=&quot;color: rgb(0, 0, 0); font-family: Helvetica; font-size: 12px; font-style: normal; font-variant-ligatures: normal; font-variant-caps: normal; font-weight: 400; letter-spacing: normal; orphans: 2; text-align: center; text-indent: 0px; text-transform: none; widows: 2; word-spacing: 0px; -webkit-text-stroke-width: 0px; background-color: rgb(248, 249, 250); text-decoration-style: initial; text-decoration-color: initial; float: none; display: inline !important;&quot;&gt;回放范围&lt;/span&gt;&lt;!--EndFragment--&gt;&#xa;&#xa;" style="rounded=1;whiteSpace=wrap;html=1;" vertex="1" parent="1">
          <mxGeometry x="420" y="350" width="120" height="60" as="geometry" />
        </mxCell>
        <mxCell id="FVSSslxMcm7K-c5CqzQ3-16" value="" style="rounded=1;whiteSpace=wrap;html=1;" vertex="1" parent="1">
          <mxGeometry x="100" y="490" width="440" height="60" as="geometry" />
        </mxCell>
      </root>
    </mxGraphModel>
  </diagram>
</mxfile>
